<svg xmlns="http://www.w3.org/2000/svg" xmlns:xlink="http://www.w3.org/1999/xlink" preserveAspectRatio="xMidYMid" width="27" height="21" viewBox="0 0 27 21">
  <defs>
    <style>

      .cls-2 {
        fill: #ffffff;
      }
    </style>
  </defs>
  <path d="M26.030,20.446 C26.030,20.446 22.906,20.446 22.906,20.446 C22.906,20.446 16.173,10.407 16.173,10.407 C16.173,10.407 14.231,12.651 14.231,12.651 C14.231,12.651 14.231,20.446 14.231,20.446 C14.231,20.446 11.593,20.446 11.593,20.446 C11.593,20.446 11.593,0.003 11.593,0.003 C11.593,0.003 14.231,0.003 14.231,0.003 C14.231,0.003 14.231,9.861 14.231,9.861 C14.231,9.861 14.322,9.861 14.322,9.861 C14.868,9.072 15.414,8.344 15.930,7.677 C15.930,7.677 22.178,0.003 22.178,0.003 C22.178,0.003 25.454,0.003 25.454,0.003 C25.454,0.003 18.053,8.678 18.053,8.678 C18.053,8.678 26.030,20.446 26.030,20.446 ZM2.826,20.780 C1.856,20.780 0.673,20.568 0.006,20.295 C0.006,20.295 0.400,18.141 0.400,18.141 C0.946,18.354 1.734,18.536 2.614,18.536 C4.980,18.536 6.375,17.474 6.375,13.470 C6.375,13.470 6.375,0.003 6.375,0.003 C6.375,0.003 9.014,0.003 9.014,0.003 C9.014,0.003 9.014,13.683 9.014,13.683 C9.014,19.112 6.345,20.780 2.826,20.780 Z" id="path-1" class="cls-2" fill-rule="evenodd"/>
</svg>
